<svg xmlns="http://www.w3.org/2000/svg" version="1.1" xmlns:xlink="http://www.w3.org/1999/xlink" xmlns:svgjs="http://svgjs.dev/svgjs" width="1440" height="560" preserveAspectRatio="none" viewBox="0 0 1440 560"><g mask="url(&quot;#SvgjsMask1026&quot;)" fill="none"><rect width="1440" height="560" x="0" y="0" fill="url(&quot;#SvgjsLinearGradient1027&quot;)"></rect><path d="M1440 0L1179.45 0L1440 33.84z" fill="rgba(255, 255, 255, .1)"></path><path d="M1179.45 0L1440 33.84L1440 82.48L755.3900000000001 0z" fill="rgba(255, 255, 255, .075)"></path><path d="M755.39 0L1440 82.48L1440 94.31L643.79 0z" fill="rgba(255, 255, 255, .05)"></path><path d="M643.79 0L1440 94.31L1440 377.5L574.9 0z" fill="rgba(255, 255, 255, .025)"></path><path d="M0 560L293.42 560L0 495.08z" fill="rgba(0, 0, 0, .1)"></path><path d="M0 495.08L293.42 560L503.8 560L0 333.77z" fill="rgba(0, 0, 0, .075)"></path><path d="M0 333.77L503.8 560L934.05 560L0 290.17999999999995z" fill="rgba(0, 0, 0, .05)"></path><path d="M0 290.17999999999995L934.05 560L1241.86 560L0 94.99999999999994z" fill="rgba(0, 0, 0, .025)"></path></g><defs><mask id="SvgjsMask1026"><rect width="1440" height="560" fill="#ffffff"></rect></mask><linearGradient x1="15.28%" y1="-39.29%" x2="84.72%" y2="139.29%" gradientUnits="userSpaceOnUse" id="SvgjsLinearGradient1027"><stop stop-color="#0e2a47" offset="0"></stop><stop stop-color="#00459e" offset="1"></stop></linearGradient></defs></svg>