<svg xmlns="http://www.w3.org/2000/svg" version="1.1" xmlns:xlink="http://www.w3.org/1999/xlink" xmlns:svgjs="http://svgjs.dev/svgjs" width="1440" height="560" preserveAspectRatio="none" viewBox="0 0 1440 560"><g mask="url(&quot;#SvgjsMask1000&quot;)" fill="none"><rect width="1440" height="560" x="0" y="0" fill="#0e2a47"></rect><path d="M -211.9358802792454,373 C -115.94,312 76.06,65.6 268.0641197207546,68 C 460.06,70.4 556.06,358 748.0641197207547,385 C 940.06,412 1036.06,180 1228.0641197207547,203 C 1420.06,226 1665.68,521.4 1708.0641197207547,500 C 1750.45,478.6 1493.61,176.8 1440,96" stroke="rgba(51, 121, 194, 0.58)" stroke-width="2"></path><path d="M -417.72186147515885,387 C -321.72,356.4 -129.72,224.2 62.27813852484115,234 C 254.28,243.8 350.28,451.4 542.2781385248411,436 C 734.28,420.6 830.28,176 1022.2781385248411,157 C 1214.28,138 1418.73,316.8 1502.278138524841,341 C 1585.82,365.2 1452.46,290.6 1440,278" stroke="rgba(51, 121, 194, 0.58)" stroke-width="2"></path><path d="M -499.19723192038043,319 C -403.2,288 -211.2,133.4 -19.197231920380418,164 C 172.8,194.6 268.8,485.4 460.80276807961957,472 C 652.8,458.6 748.8,95.6 940.8027680796196,97 C 1132.8,98.4 1320.96,458.6 1420.8027680796197,479 C 1520.64,499.4 1436.16,255 1440,199" stroke="rgba(51, 121, 194, 0.58)" stroke-width="2"></path><path d="M -762.9142088434269,96 C -666.91,155.2 -474.91,383 -282.9142088434269,392 C -90.91,401 5.09,120 197.08579115657312,141 C 389.09,162 485.09,493.2 677.0857911565731,497 C 869.09,500.8 1004.5,158.8 1157.0857911565731,160 C 1309.67,161.2 1383.42,434.4 1440,503" stroke="rgba(51, 121, 194, 0.58)" stroke-width="2"></path></g><defs><mask id="SvgjsMask1000"><rect width="1440" height="560" fill="#ffffff"></rect></mask></defs></svg>